<svg xmlns="http://www.w3.org/2000/svg" width="980" height="320" viewBox="0 0 980 320" role="img" aria-labelledby="title desc">
<title id="title">Coffee Microgift reward image</title>
<desc id="desc">A hand holding coffee next to a five dollar Coffee Microgift ticket.</desc>
<defs><linearGradient id="bg" x1="0" x2="1"><stop offset="0" stop-color="#26150f"/><stop offset=".45" stop-color="#6d3419"/><stop offset="1" stop-color="#120907"/></linearGradient><filter id="s"><feDropShadow dx="0" dy="16" stdDeviation="14" flood-color="#000" flood-opacity=".28"/></filter></defs>
<rect width="980" height="320" fill="url(#bg)"/>
<g opacity=".12" stroke="#ffe6bd" stroke-width="2" fill="none"><path d="M20 270c90-30 142-6 220-34s134-66 224-34"/><path d="M820 34c52 26 92 68 124 126"/><circle cx="895" cy="214" r="74"/></g>
<g filter="url(#s)"><ellipse cx="192" cy="250" rx="150" ry="28" fill="#0b0504" opacity=".35"/><ellipse cx="204" cy="132" rx="112" ry="38" fill="#fff1d9"/><ellipse cx="204" cy="132" rx="88" ry="25" fill="#a95724"/><path d="M153 130c34-19 67-19 101 0" stroke="#fff5e0" stroke-width="9" fill="none" stroke-linecap="round"/><path d="M120 146c7 66 40 102 91 102s83-36 91-102" fill="#e7c8a1"/><path d="M312 155c48 6 48 80 0 86" fill="none" stroke="#e7c8a1" stroke-width="28" stroke-linecap="round"/><text x="211" y="206" text-anchor="middle" font-family="Arial,sans-serif" font-size="23" font-weight="900" fill="#4a2413">MAPLE</text><text x="211" y="232" text-anchor="middle" font-family="Arial,sans-serif" font-size="23" font-weight="900" fill="#4a2413">&amp; MAIN</text></g>
<g transform="translate(430 48)" filter="url(#s)"><path d="M0 0h470c20 0 36 16 36 36v176c0 20-16 36-36 36H0c16-18 16-54 0-72 16-18 16-54 0-72 16-18 16-54 0-72z" fill="#fff4df"/><line x1="228" y1="18" x2="228" y2="230" stroke="#d9be95" stroke-width="3" stroke-dasharray="11 9"/><text x="104" y="108" text-anchor="middle" font-family="Georgia,serif" font-size="84" font-weight="900" fill="#4a2413">$5</text><text x="348" y="86" text-anchor="middle" font-family="Arial,sans-serif" font-size="35" font-weight="900" letter-spacing="6" fill="#4a2413">COFFEE</text><text x="348" y="132" text-anchor="middle" font-family="Arial,sans-serif" font-size="35" font-weight="900" letter-spacing="6" fill="#4a2413">MICROGIFT</text><text x="348" y="58" text-anchor="middle" font-family="Arial,sans-serif" font-size="36" fill="#a34827">☕</text><rect x="270" y="158" width="192" height="42" rx="21" fill="#c99035"/><text x="366" y="184" text-anchor="middle" font-family="Arial,sans-serif" font-size="14" font-weight="900" letter-spacing="2" fill="#fff">VALID AT SHOPS</text><text x="348" y="222" text-anchor="middle" font-family="Arial,sans-serif" font-size="17" fill="#4a2413">See all locations in the app →</text></g>
</svg>
