<svg xmlns="http://www.w3.org/2000/svg" width="1200" height="620" viewBox="0 0 1200 620" role="img" aria-labelledby="title desc">
<title id="title">Downtown Coffee Quest hero image</title>
<desc id="desc">Coffee cup, QR check-in tent, phone quest progress, and five dollar Coffee Microgift reward card.</desc>
<defs>
<linearGradient id="bg" x1="0" x2="1" y1="0" y2="1"><stop offset="0" stop-color="#f8ead7"/><stop offset="0.46" stop-color="#c88f54"/><stop offset="1" stop-color="#31170d"/></linearGradient>
<radialGradient id="glow" cx=".28" cy=".48" r=".55"><stop offset="0" stop-color="#fff8ed" stop-opacity=".9"/><stop offset="1" stop-color="#fff8ed" stop-opacity="0"/></radialGradient>
<filter id="shadow" x="-20%" y="-20%" width="140%" height="140%"><feDropShadow dx="0" dy="20" stdDeviation="18" flood-color="#2b160c" flood-opacity=".28"/></filter>
</defs>
<rect width="1200" height="620" fill="url(#bg)"/>
<rect width="1200" height="620" fill="url(#glow)"/>
<g opacity=".2" fill="none" stroke="#fff4e5" stroke-width="2">
<path d="M710 95h110m28 0h72m52 0h92"/><path d="M746 135h260"/><path d="M80 450c90-34 160-28 246 0s157 30 265-8"/>
</g>
<g filter="url(#shadow)">
<ellipse cx="270" cy="485" rx="190" ry="36" fill="#3b1c0f" opacity=".35"/>
<ellipse cx="268" cy="388" rx="188" ry="56" fill="#7e4522"/>
<ellipse cx="268" cy="371" rx="174" ry="48" fill="#fff1da"/>
<ellipse cx="268" cy="371" rx="145" ry="34" fill="#b56224"/>
<path d="M196 362c42-30 88-30 138 0" fill="none" stroke="#fff5dd" stroke-width="10" stroke-linecap="round"/>
<path d="M218 361c28-18 58-18 90 0" fill="none" stroke="#fff5dd" stroke-width="7" stroke-linecap="round"/>
<path d="M252 371c0-28 24-48 48-48 28 0 46 18 44 42-35-22-60-17-92 6z" fill="#fff5dd" opacity=".9"/>
<path d="M112 392c7 86 54 135 155 135s151-48 158-135" fill="#e5c9a5"/>
<path d="M124 392c12 66 52 104 143 104s132-36 146-104" fill="#f5dfbe"/>
<path d="M430 398c72-8 88 90 8 106" fill="none" stroke="#f1d6b5" stroke-width="36" stroke-linecap="round"/>
<ellipse cx="267" cy="391" rx="157" ry="44" fill="none" stroke="#8f582f" stroke-width="4" opacity=".5"/>
</g>
<g filter="url(#shadow)">
<path d="M498 132h218l26 330H468z" fill="#f6dfbf"/>
<path d="M498 132h218l14 48H512z" fill="#fff2dc" opacity=".7"/>
<text x="606" y="198" text-anchor="middle" font-family="Arial,sans-serif" font-size="31" font-weight="900" fill="#2b160c">SCAN TO</text>
<text x="606" y="236" text-anchor="middle" font-family="Arial,sans-serif" font-size="31" font-weight="900" fill="#2b160c">CHECK IN</text>
<rect x="540" y="268" width="132" height="132" fill="#fff7ec" stroke="#2b160c" stroke-width="8"/>
<g fill="#2b160c"><rect x="556" y="284" width="30" height="30"/><rect x="626" y="284" width="30" height="30"/><rect x="556" y="354" width="30" height="30"/><rect x="596" y="285" width="14" height="14"/><rect x="596" y="315" width="22" height="18"/><rect x="626" y="330" width="19" height="17"/><rect x="597" y="356" width="11" height="28"/><rect x="620" y="369" width="28" height="14"/><rect x="574" y="326" width="16" height="16"/></g>
<text x="606" y="438" text-anchor="middle" font-family="Arial,sans-serif" font-size="16" font-weight="900" fill="#2b160c">EARN REWARDS</text>
</g>
<g transform="translate(762 72) rotate(7)" filter="url(#shadow)">
<rect x="0" y="0" width="248" height="470" rx="38" fill="#121212"/>
<rect x="14" y="16" width="220" height="438" rx="28" fill="#fff8ef"/>
<rect x="78" y="18" width="82" height="22" rx="11" fill="#121212"/>
<text x="124" y="72" text-anchor="middle" font-family="Arial,sans-serif" font-size="15" font-weight="800" fill="#2b160c">Local Quest</text>
<text x="36" y="128" font-family="Georgia,serif" font-size="31" font-weight="900" fill="#2b160c">Downtown</text>
<text x="36" y="164" font-family="Georgia,serif" font-size="31" font-weight="900" fill="#2b160c">Coffee Quest</text>
<rect x="36" y="184" width="96" height="26" rx="13" fill="#bd5a2c"/><text x="84" y="202" text-anchor="middle" font-family="Arial,sans-serif" font-size="12" font-weight="800" fill="#fff">In Progress</text>
<text x="36" y="258" font-family="Arial,sans-serif" font-size="22" font-weight="700" fill="#2b160c">Check in at 3 local</text><text x="36" y="285" font-family="Arial,sans-serif" font-size="22" font-weight="700" fill="#2b160c">coffee shops</text>
<text x="36" y="336" font-family="Arial,sans-serif" font-size="32" font-weight="800" fill="#bd5a2c">2 / 3</text><rect x="36" y="354" width="168" height="13" rx="7" fill="#ecdccc"/><rect x="36" y="354" width="72" height="13" rx="7" fill="#c99035"/>
<rect x="36" y="394" width="168" height="58" rx="12" fill="#fff" stroke="#eaded0"/><text x="55" y="418" font-family="Arial,sans-serif" font-size="13" font-weight="800" fill="#bd5a2c">Next stop</text><text x="55" y="443" font-family="Arial,sans-serif" font-size="14" fill="#2b160c">Maple &amp; Main Coffee</text>
</g>
<g transform="translate(1018 275) rotate(8)" filter="url(#shadow)">
<rect width="150" height="230" rx="22" fill="#4a2413"/><rect x="10" y="10" width="130" height="210" rx="17" fill="none" stroke="#c99035" opacity=".5"/><text x="75" y="72" text-anchor="middle" font-family="Arial,sans-serif" font-size="13" font-weight="800" fill="#eecf9e">YOUR REWARD</text><text x="75" y="136" text-anchor="middle" font-family="Georgia,serif" font-size="72" font-weight="900" fill="#ffd69a">$5</text><text x="75" y="174" text-anchor="middle" font-family="Georgia,serif" font-size="25" fill="#ffd69a">Coffee</text><text x="75" y="202" text-anchor="middle" font-family="Georgia,serif" font-size="25" fill="#ffd69a">Microgift</text><text x="75" y="44" text-anchor="middle" font-family="Arial,sans-serif" font-size="34" fill="#ffd69a">☕</text>
</g>
</svg>
