<svg xmlns="http://www.w3.org/2000/svg" width="980" height="320" viewBox="0 0 980 320" role="img" aria-labelledby="title desc">
<title id="title">Dining Microgift reward image</title>
<desc id="desc">Local restaurant reward banner with food images and a ten dollar Dining Microgift ticket.</desc>
<defs><linearGradient id="bg" x1="0" x2="1"><stop offset="0" stop-color="#1a0c08"/><stop offset=".48" stop-color="#572012"/><stop offset="1" stop-color="#0f0705"/></linearGradient><filter id="s"><feDropShadow dx="0" dy="16" stdDeviation="14" flood-color="#000" flood-opacity=".28"/></filter></defs>
<rect width="980" height="320" fill="url(#bg)"/>
<g opacity=".14" stroke="#ffd09a" stroke-width="2" fill="none"><path d="M18 270c70-38 130-36 202-6s139 22 225-34"/><path d="M798 44c80 24 134 80 158 168"/><path d="M838 250h104"/></g>
<g transform="translate(72 52)"><text x="0" y="55" font-family="Arial,sans-serif" font-size="40" font-weight="900" fill="#ffe9cf">MORE STOPS.</text><text x="0" y="100" font-family="Arial,sans-serif" font-size="40" font-weight="900" fill="#ffe9cf">BETTER REWARDS.</text><text x="0" y="154" font-family="Arial,sans-serif" font-size="18" fill="#fff5e8">Complete the crawl and unlock</text><text x="0" y="180" font-family="Arial,sans-serif" font-size="18" fill="#fff5e8">exclusive rewards and local deals.</text></g>
<g transform="translate(392 44)" filter="url(#s)"><g transform="rotate(-8 52 106)"><rect width="118" height="152" fill="#fff4e2"/><rect x="13" y="13" width="92" height="86" fill="#d56a2f"/><circle cx="58" cy="56" r="35" fill="#f6c46d"/><path d="M28 74c22-34 56-48 84-18" stroke="#7b2a13" stroke-width="10" fill="none"/><text x="59" y="129" text-anchor="middle" font-family="Arial,sans-serif" font-size="17" font-weight="900" fill="#2b160c">GREAT</text><text x="59" y="149" text-anchor="middle" font-family="Arial,sans-serif" font-size="17" font-weight="900" fill="#2b160c">EATS</text></g><g transform="translate(136 5) rotate(2 52 106)"><rect width="118" height="152" fill="#fff4e2"/><rect x="13" y="13" width="92" height="86" fill="#432015"/><rect x="45" y="22" width="30" height="70" rx="10" fill="#d8972f"/><rect x="40" y="35" width="40" height="42" rx="8" fill="#a64720"/><text x="59" y="129" text-anchor="middle" font-family="Arial,sans-serif" font-size="17" font-weight="900" fill="#2b160c">LOCAL</text><text x="59" y="149" text-anchor="middle" font-family="Arial,sans-serif" font-size="17" font-weight="900" fill="#2b160c">DRINKS</text></g><g transform="translate(270 0) rotate(8 52 106)"><rect width="118" height="152" fill="#fff4e2"/><rect x="13" y="13" width="92" height="86" fill="#f1c66d"/><ellipse cx="59" cy="62" rx="42" ry="26" fill="#fff8e7"/><path d="M22 72c45-42 78-38 84 0" stroke="#6c2a14" stroke-width="8" fill="none"/><text x="59" y="129" text-anchor="middle" font-family="Arial,sans-serif" font-size="17" font-weight="900" fill="#2b160c">SWEET</text><text x="59" y="149" text-anchor="middle" font-family="Arial,sans-serif" font-size="17" font-weight="900" fill="#2b160c">TREATS</text></g></g>
<g transform="translate(778 48) rotate(-4)" filter="url(#s)"><path d="M0 0h150c15 0 28 12 28 28v174c0 15-13 28-28 28H0c12-16 12-42 0-58 12-16 12-42 0-58 12-16 12-42 0-58z" fill="#e65332"/><text x="88" y="72" text-anchor="middle" font-family="Arial,sans-serif" font-size="27" font-weight="900" fill="#fff6e8">EXCLUSIVE</text><text x="88" y="106" text-anchor="middle" font-family="Arial,sans-serif" font-size="27" font-weight="900" fill="#fff6e8">REWARDS</text><text x="88" y="140" text-anchor="middle" font-family="Arial,sans-serif" font-size="27" font-weight="900" fill="#fff6e8">AWAIT!</text><text x="88" y="184" text-anchor="middle" font-family="Arial,sans-serif" font-size="28" fill="#ffd481">★ ★ ★</text></g>
</svg>
