<svg xmlns="http://www.w3.org/2000/svg" width="1200" height="620" viewBox="0 0 1200 620" role="img" aria-labelledby="title desc">
<title id="title">Food Crawl Three Stops hero image</title>
<desc id="desc">Food crawl tacos, phone progress, QR check-in sign, map path, and ten dollar Dining Microgift reward card.</desc>
<defs><linearGradient id="bg" x1="0" x2="1" y1="0" y2="1"><stop offset="0" stop-color="#fff1df"/><stop offset=".38" stop-color="#ef7b35"/><stop offset="1" stop-color="#2b0f08"/></linearGradient><radialGradient id="glow" cx=".72" cy=".35" r=".55"><stop offset="0" stop-color="#fff8e9" stop-opacity=".92"/><stop offset="1" stop-color="#fff8e9" stop-opacity="0"/></radialGradient><filter id="shadow" x="-20%" y="-20%" width="140%" height="140%"><feDropShadow dx="0" dy="20" stdDeviation="18" flood-color="#250b05" flood-opacity=".28"/></filter></defs>
<rect width="1200" height="620" fill="url(#bg)"/><rect width="1200" height="620" fill="url(#glow)"/>
<g opacity=".28" fill="none" stroke="#fff2d4" stroke-width="3" stroke-linecap="round" stroke-dasharray="8 14"><path d="M90 472C242 316 363 522 514 355s260 18 382-138 214-98 270-14"/></g>
<g fill="#f7c27d"><path d="M160 322l22 38 22-38c0-20-44-20-44 0z"/><path d="M508 255l22 38 22-38c0-20-44-20-44 0z"/><path d="M1075 128l22 38 22-38c0-20-44-20-44 0z"/></g>
<g filter="url(#shadow)">
<ellipse cx="814" cy="456" rx="270" ry="54" fill="#220b05" opacity=".35"/>
<path d="M620 372c68-120 228-144 350-54 18 76-29 138-140 155-105 16-179-23-210-101z" fill="#f5c16d"/>
<path d="M650 374c60-84 188-95 292-30-15 44-55 72-120 82-75 12-132-8-172-52z" fill="#d85426"/>
<g fill="#fff3dc"><circle cx="742" cy="338" r="12"/><circle cx="810" cy="354" r="13"/><circle cx="883" cy="337" r="10"/><circle cx="928" cy="370" r="12"/></g>
<g fill="#2f8a50"><ellipse cx="708" cy="352" rx="32" ry="11" transform="rotate(-16 708 352)"/><ellipse cx="854" cy="327" rx="36" ry="10" transform="rotate(12 854 327)"/><ellipse cx="954" cy="350" rx="28" ry="9" transform="rotate(-22 954 350)"/></g>
<path d="M670 440c58 54 210 54 292-14" fill="none" stroke="#7c2d13" stroke-width="14" stroke-linecap="round" opacity=".45"/>
</g>
<g filter="url(#shadow)">
<path d="M438 128h218l26 330H408z" fill="#f7dfbd"/>
<text x="546" y="196" text-anchor="middle" font-family="Arial,sans-serif" font-size="31" font-weight="900" fill="#2b160c">SCAN TO</text><text x="546" y="234" text-anchor="middle" font-family="Arial,sans-serif" font-size="31" font-weight="900" fill="#2b160c">CHECK IN</text>
<rect x="480" y="266" width="132" height="132" fill="#fff7ec" stroke="#2b160c" stroke-width="8"/>
<g fill="#2b160c"><rect x="496" y="282" width="30" height="30"/><rect x="566" y="282" width="30" height="30"/><rect x="496" y="352" width="30" height="30"/><rect x="536" y="283" width="14" height="14"/><rect x="536" y="313" width="22" height="18"/><rect x="566" y="328" width="19" height="17"/><rect x="537" y="354" width="11" height="28"/><rect x="560" y="367" width="28" height="14"/><rect x="514" y="324" width="16" height="16"/></g>
<text x="546" y="436" text-anchor="middle" font-family="Arial,sans-serif" font-size="16" font-weight="900" fill="#2b160c">EARN REWARDS</text>
</g>
<g transform="translate(690 75) rotate(6)" filter="url(#shadow)">
<rect x="0" y="0" width="248" height="470" rx="38" fill="#121212"/><rect x="14" y="16" width="220" height="438" rx="28" fill="#fff8ef"/><rect x="78" y="18" width="82" height="22" rx="11" fill="#121212"/><text x="124" y="72" text-anchor="middle" font-family="Arial,sans-serif" font-size="15" font-weight="800" fill="#2b160c">Local Quest</text><text x="36" y="126" font-family="Georgia,serif" font-size="30" font-weight="900" fill="#2b160c">Food Crawl:</text><text x="36" y="162" font-family="Georgia,serif" font-size="30" font-weight="900" fill="#2b160c">Three Stops</text><rect x="36" y="184" width="96" height="26" rx="13" fill="#e44b34"/><text x="84" y="202" text-anchor="middle" font-family="Arial,sans-serif" font-size="12" font-weight="800" fill="#fff">In Progress</text><text x="36" y="258" font-family="Arial,sans-serif" font-size="21" font-weight="700" fill="#2b160c">Check in at 3 restaurants</text><text x="36" y="334" font-family="Arial,sans-serif" font-size="32" font-weight="800" fill="#e44b34">2 / 3</text><rect x="36" y="352" width="168" height="13" rx="7" fill="#ecdccc"/><rect x="36" y="352" width="104" height="13" rx="7" fill="#d8972f"/><rect x="36" y="392" width="168" height="64" rx="12" fill="#fff" stroke="#eaded0"/><text x="55" y="416" font-family="Arial,sans-serif" font-size="13" font-weight="800" fill="#e44b34">Next stop</text><text x="55" y="442" font-family="Arial,sans-serif" font-size="14" fill="#2b160c">The Local Table</text></g>
<g transform="translate(990 302) rotate(8)" filter="url(#shadow)"><rect width="154" height="228" rx="22" fill="#8d2c1d"/><rect x="10" y="10" width="134" height="208" rx="17" fill="none" stroke="#f2b86e" opacity=".55"/><text x="77" y="70" text-anchor="middle" font-family="Arial,sans-serif" font-size="13" font-weight="800" fill="#ffe0b0">YOUR REWARD</text><text x="77" y="136" text-anchor="middle" font-family="Georgia,serif" font-size="66" font-weight="900" fill="#ffd69a">$10</text><text x="77" y="176" text-anchor="middle" font-family="Georgia,serif" font-size="24" fill="#ffd69a">Dining</text><text x="77" y="203" text-anchor="middle" font-family="Georgia,serif" font-size="24" fill="#ffd69a">Microgift</text><text x="77" y="45" text-anchor="middle" font-family="Arial,sans-serif" font-size="34" fill="#ffd69a">🍽</text></g>
</svg>
