<svg xmlns="http://www.w3.org/2000/svg" viewBox="0 0 1200 800" role="img" aria-labelledby="title desc">
  <title id="title">Microgifter Loyalty Quest</title>
  <desc id="desc">Abstract local discovery artwork used when a quest has no uploaded image.</desc>
  <defs>
    <linearGradient id="bg" x1="0" y1="0" x2="1" y2="1">
      <stop offset="0" stop-color="#eef5ff"/>
      <stop offset="0.5" stop-color="#ffffff"/>
      <stop offset="1" stop-color="#e8fff7"/>
    </linearGradient>
    <linearGradient id="route" x1="0" y1="0" x2="1" y2="0">
      <stop offset="0" stop-color="#111827"/>
      <stop offset="1" stop-color="#2563eb"/>
    </linearGradient>
  </defs>
  <rect width="1200" height="800" rx="48" fill="url(#bg)"/>
  <g fill="none" stroke="#cbd8e8" stroke-width="3" opacity=".65">
    <path d="M0 180h1200M0 400h1200M0 620h1200"/>
    <path d="M180 0v800M460 0v800M760 0v800M1040 0v800"/>
  </g>
  <path d="M180 600C300 420 420 520 560 340S840 180 1020 260" fill="none" stroke="url(#route)" stroke-width="18" stroke-linecap="round" stroke-dasharray="26 24"/>
  <g transform="translate(170 570)">
    <circle r="58" fill="#111827"/>
    <circle r="22" fill="#fff"/>
  </g>
  <g transform="translate(1020 260)">
    <path d="M0-72c-39 0-70 31-70 70 0 54 70 126 70 126S70 52 70-2C70-41 39-72 0-72Z" fill="#2563eb"/>
    <circle cy="-4" r="25" fill="#fff"/>
  </g>
  <g transform="translate(600 430)">
    <rect x="-230" y="-90" width="460" height="180" rx="38" fill="#fff" stroke="#dce7f4" stroke-width="4"/>
    <path d="M-150 22V-24l55-34 55 34v46h-36V-8h-38v30Z" fill="#111827"/>
    <text x="-10" y="-14" font-family="Arial,Helvetica,sans-serif" font-size="34" font-weight="700" fill="#111827">Loyalty Quest</text>
    <text x="-10" y="34" font-family="Arial,Helvetica,sans-serif" font-size="22" fill="#64748b">Explore • Complete • Earn</text>
  </g>
</svg>
