<svg xmlns="http://www.w3.org/2000/svg" viewBox="0 0 960 520" role="img" aria-label="Soft world map background"><rect width="960" height="520" fill="#dceeff"/><g fill="#ffffff" opacity="0.88"><path d="M82 142c38-36 108-55 157-35 26 11 42 31 63 49 21 19 55 26 69 52 12 23-2 50-24 58-34 13-63-22-92-16-26 5-38 39-67 38-32-1-37-42-61-55-24-14-66 1-82-27-13-22 12-48 37-64z"/><path d="M274 288c31 8 54 35 51 68-3 37-32 61-40 96-6 25-2 47-18 55-18 9-38-25-45-53-9-35 10-59 17-89 7-29-2-55 35-77z"/><path d="M380 132c27-24 72-25 102-5 24 16 35 45 22 68-16 29-58 23-85 13-28-11-56-42-39-76z"/><path d="M462 230c31-22 84-21 117 1 31 21 35 60 13 90-18 25-23 49-9 77 12 24 0 52-25 51-31-2-45-49-72-65-31-19-55-32-63-67-8-34 13-68 39-87z"/><path d="M572 142c68-37 169-28 232 21 39 31 66 78 55 126-10 45-54 72-101 66-41-5-70-38-110-44-43-7-84 12-119-18-36-31-24-90 43-151z"/><path d="M778 380c31-20 82-13 103 20 18 28 5 68-29 81-35 14-83-7-95-40-8-24 0-47 21-61z"/><path d="M305 96c33-46 98-72 154-54 45 14 58 55 31 79-35 31-89-2-131 16-32 14-62-2-54-41z"/></g><g fill="none" stroke="#c8ddf5" stroke-width="1" opacity="0.75"><path d="M0 130h960M0 260h960M0 390h960M160 0v520M320 0v520M480 0v520M640 0v520M800 0v520"/></g></svg>