<svg xmlns="http://www.w3.org/2000/svg" width="900" height="1200" viewBox="0 0 900 1200" role="img" aria-label="Agent-ready coffee reward screen">
  <rect width="900" height="1200" rx="72" fill="#f7f7f2"/>
  <rect x="58" y="54" width="784" height="1092" rx="60" fill="#ffffff" stroke="#d1d5db" stroke-width="4"/>
  <text x="110" y="150" font-family="Arial" font-size="38" font-weight="900" fill="#101010">Reward Builder</text>
  <text x="110" y="195" font-family="Arial" font-size="24" fill="#4f4b43">Agent-ready structure</text>
  <rect x="110" y="250" width="680" height="160" rx="34" fill="#f8f8f5" stroke="#d1d5db"/>
  <text x="148" y="314" font-family="Arial" font-size="24" fill="#4f4b43">Reward</text>
  <text x="148" y="360" font-family="Arial" font-size="44" font-weight="900" fill="#101010">Coffee for Two</text>
  <g transform="translate(110 462)"><rect width="680" height="96" rx="26" fill="#f4f4f1" stroke="#d1d5db"/><text x="34" y="42" font-family="Arial" font-size="21" fill="#4f4b43">Intent</text><text x="34" y="72" font-family="Arial" font-size="26" font-weight="900" fill="#101010">Gift, save, or redeem</text></g>
  <g transform="translate(110 590)"><rect width="680" height="96" rx="26" fill="#f4f4f1" stroke="#d1d5db"/><text x="34" y="42" font-family="Arial" font-size="21" fill="#4f4b43">Supply</text><text x="34" y="72" font-family="Arial" font-size="26" font-weight="900" fill="#101010">Limited · 250 available</text></g>
  <g transform="translate(110 718)"><rect width="680" height="96" rx="26" fill="#f4f4f1" stroke="#d1d5db"/><text x="34" y="42" font-family="Arial" font-size="21" fill="#4f4b43">Delivery</text><text x="34" y="72" font-family="Arial" font-size="26" font-weight="900" fill="#101010">Email, QR, API, agent</text></g>
  <rect x="110" y="860" width="680" height="118" rx="30" fill="#101010"/>
  <text x="150" y="912" font-family="Arial" font-size="22" fill="#d1d5db">Structured payload</text>
  <text x="150" y="950" font-family="Arial" font-size="28" font-weight="900" fill="#fff">limited_coffee_for_two</text>
  <rect x="110" y="1028" width="680" height="78" rx="24" fill="#101010"/>
  <text x="302" y="1078" font-family="Arial" font-size="26" font-weight="900" fill="#fff">Issue reward</text>
</svg>
