<svg xmlns="http://www.w3.org/2000/svg" width="900" height="1200" viewBox="0 0 900 1200" role="img" aria-label="Merchant analytics dashboard screen">
  <rect width="900" height="1200" rx="72" fill="#f7f7f2"/>
  <rect x="58" y="54" width="784" height="1092" rx="60" fill="#ffffff" stroke="#d1d5db" stroke-width="4"/>
  <text x="110" y="150" font-family="Arial" font-size="40" font-weight="900" fill="#101010">Analytics</text>
  <text x="110" y="195" font-family="Arial" font-size="24" fill="#4f4b43">Reward performance and visits</text>
  <g transform="translate(110 260)"><rect width="310" height="160" rx="34" fill="#f8f8f5" stroke="#d1d5db"/><text x="34" y="62" font-family="Arial" font-size="22" fill="#4f4b43">Revenue</text><text x="34" y="116" font-family="Arial" font-size="48" font-weight="900" fill="#101010">$18K</text></g>
  <g transform="translate(480 260)"><rect width="310" height="160" rx="34" fill="#f8f8f5" stroke="#d1d5db"/><text x="34" y="62" font-family="Arial" font-size="22" fill="#4f4b43">Claims</text><text x="34" y="116" font-family="Arial" font-size="48" font-weight="900" fill="#101010">742</text></g>
  <rect x="110" y="480" width="680" height="310" rx="42" fill="#f8f8f5" stroke="#d1d5db"/>
  <path d="M160 710 L235 670 L310 690 L385 620 L460 644 L535 574 L610 600 L685 540 L750 552" fill="none" stroke="#d1d5db" stroke-width="14" stroke-linecap="round" stroke-linejoin="round"/>
  <g transform="translate(110 842)"><rect width="680" height="100" rx="28" fill="#f4f4f1" stroke="#d1d5db"/><text x="34" y="44" font-family="Arial" font-size="21" fill="#4f4b43">Top reward</text><text x="34" y="75" font-family="Arial" font-size="26" font-weight="900" fill="#101010">Coffee for Two · 31% conversion</text></g>
  <g transform="translate(110 972)"><rect width="680" height="100" rx="28" fill="#f4f4f1" stroke="#d1d5db"/><text x="34" y="44" font-family="Arial" font-size="21" fill="#4f4b43">Next action</text><text x="34" y="75" font-family="Arial" font-size="26" font-weight="900" fill="#101010">Launch a weekend drop</text></g>
</svg>
