<svg xmlns="http://www.w3.org/2000/svg" width="900" height="1200" viewBox="0 0 900 1200" role="img" aria-label="Nearby offers discovery screen">
  <rect width="900" height="1200" rx="72" fill="#f7f7f2"/>
  <rect x="58" y="54" width="784" height="1092" rx="60" fill="#ffffff" stroke="#d1d5db" stroke-width="4"/>
  <text x="110" y="150" font-family="Arial" font-size="40" font-weight="900" fill="#101010">Nearby offers</text>
  <text x="110" y="195" font-family="Arial" font-size="24" fill="#4f4b43">Belmont, CA · discover local rewards</text>
  <rect x="110" y="245" width="680" height="330" rx="42" fill="#f4f4f1" stroke="#d1d5db"/>
  <path d="M145 500 C240 410 300 430 390 330 C470 245 570 298 625 242 C690 176 745 250 765 330" fill="none" stroke="#d1d5db" stroke-width="12" stroke-linecap="round"/>
  <g fill="#101010"><circle cx="250" cy="432" r="16"/><circle cx="402" cy="330" r="16"/><circle cx="612" cy="254" r="16"/><circle cx="710" cy="300" r="16"/></g>
  <g transform="translate(110 625)"><rect width="680" height="128" rx="30" fill="#f8f8f5" stroke="#d1d5db"/><circle cx="58" cy="64" r="30" fill="#d1d5db"/><text x="112" y="55" font-family="Arial" font-size="26" font-weight="900" fill="#101010">Coffee for Two</text><text x="112" y="91" font-family="Arial" font-size="21" fill="#4f4b43">0.4 mi · save to wallet</text></g>
  <g transform="translate(110 784)"><rect width="680" height="128" rx="30" fill="#f8f8f5" stroke="#d1d5db"/><circle cx="58" cy="64" r="30" fill="#d1d5db"/><text x="112" y="55" font-family="Arial" font-size="26" font-weight="900" fill="#101010">Weekend Brunch Drop</text><text x="112" y="91" font-family="Arial" font-size="21" fill="#4f4b43">1.2 mi · limited supply</text></g>
  <g transform="translate(110 943)"><rect width="680" height="128" rx="30" fill="#f8f8f5" stroke="#d1d5db"/><circle cx="58" cy="64" r="30" fill="#d1d5db"/><text x="112" y="55" font-family="Arial" font-size="26" font-weight="900" fill="#101010">Trial Class Pass</text><text x="112" y="91" font-family="Arial" font-size="21" fill="#4f4b43">2.0 mi · local fitness</text></g>
</svg>
