<svg xmlns="http://www.w3.org/2000/svg" width="900" height="1200" viewBox="0 0 900 1200" role="img" aria-label="Saved coffee reward wallet screen">
  <defs><linearGradient id="bg" x1="0" y1="0" x2="0" y2="1"><stop offset="0" stop-color="#fbfaf6"/><stop offset="1" stop-color="#ecebe6"/></linearGradient></defs>
  <rect width="900" height="1200" rx="72" fill="url(#bg)"/>
  <rect x="58" y="54" width="784" height="1092" rx="60" fill="#fff" stroke="#d1d5db" stroke-width="4"/>
  <text x="110" y="150" font-family="Arial" font-size="42" font-weight="900" fill="#101010">Wallet</text>
  <text x="110" y="195" font-family="Arial" font-size="24" fill="#4f4b43">Saved reward</text>
  <rect x="110" y="260" width="680" height="360" rx="42" fill="#f8f8f5" stroke="#d1d5db" stroke-width="3"/>
  <circle cx="178" cy="338" r="36" fill="#d1d5db"/>
  <text x="235" y="350" font-family="Arial" font-size="30" font-weight="900" fill="#101010">Coffee for Two</text>
  <text x="138" y="442" font-family="Arial" font-size="72" font-weight="900" fill="#101010">COF2</text>
  <text x="138" y="500" font-family="Arial" font-size="26" fill="#4f4b43">Limited local reward · saved</text>
  <rect x="138" y="540" width="250" height="52" rx="18" fill="#101010"/>
  <text x="170" y="575" font-family="Arial" font-size="22" font-weight="900" fill="#fff">Ready to redeem</text>
  <rect x="110" y="670" width="680" height="130" rx="28" fill="#f4f4f1" stroke="#d1d5db"/>
  <text x="148" y="728" font-family="Arial" font-size="22" fill="#4f4b43">Merchant</text><text x="148" y="765" font-family="Arial" font-size="30" font-weight="900" fill="#101010">Local Coffee House</text>
  <rect x="110" y="832" width="680" height="130" rx="28" fill="#f4f4f1" stroke="#d1d5db"/>
  <text x="148" y="890" font-family="Arial" font-size="22" fill="#4f4b43">Value</text><text x="148" y="927" font-family="Arial" font-size="30" font-weight="900" fill="#101010">Two drinks · one visit</text>
  <rect x="110" y="1008" width="680" height="78" rx="24" fill="#101010"/>
  <text x="305" y="1058" font-family="Arial" font-size="26" font-weight="900" fill="#fff">Open reward</text>
</svg>
