<svg xmlns="http://www.w3.org/2000/svg" width="1200" height="900" viewBox="0 0 1200 900" role="img" aria-label="Microgifter dashboard preview">
  <defs>
    <linearGradient id="bg" x1="0" y1="0" x2="1" y2="1"><stop offset="0" stop-color="#f8f8f5"/><stop offset="1" stop-color="#e8e8e3"/></linearGradient>
    <linearGradient id="line" x1="0" y1="0" x2="1" y2="1"><stop offset="0" stop-color="#d1d5db"/><stop offset="1" stop-color="#eef0f3"/></linearGradient>
  </defs>
  <rect width="1200" height="900" rx="42" fill="url(#bg)"/>
  <rect x="52" y="54" width="1096" height="792" rx="34" fill="#ffffff" stroke="#d1d5db" stroke-width="3"/>
  <rect x="92" y="102" width="210" height="700" rx="28" fill="#f4f4f1" stroke="#d1d5db"/>
  <circle cx="136" cy="152" r="18" fill="#d1d5db"/>
  <text x="170" y="162" font-family="Arial" font-size="25" font-weight="900" fill="#101010">Microgifter</text>
  <g fill="#4f4b43" font-family="Arial" font-size="21"><text x="120" y="245">Campaigns</text><text x="120" y="305">Rewards</text><text x="120" y="365">Customers</text><text x="120" y="425">Analytics</text></g>
  <text x="350" y="150" font-family="Arial" font-size="42" font-weight="900" fill="#101010">Campaign Performance</text>
  <text x="350" y="196" font-family="Arial" font-size="23" fill="#4f4b43">Launch, track, and optimize local demand.</text>
  <g transform="translate(350 250)"><rect width="220" height="130" rx="26" fill="#f8f8f5" stroke="#d1d5db"/><text x="26" y="54" font-family="Arial" font-size="21" fill="#4f4b43">Issued</text><text x="26" y="100" font-family="Arial" font-size="40" font-weight="900" fill="#101010">1,248</text></g>
  <g transform="translate(610 250)"><rect width="220" height="130" rx="26" fill="#f8f8f5" stroke="#d1d5db"/><text x="26" y="54" font-family="Arial" font-size="21" fill="#4f4b43">Claims</text><text x="26" y="100" font-family="Arial" font-size="40" font-weight="900" fill="#101010">742</text></g>
  <g transform="translate(870 250)"><rect width="220" height="130" rx="26" fill="#f8f8f5" stroke="#d1d5db"/><text x="26" y="54" font-family="Arial" font-size="21" fill="#4f4b43">Revenue</text><text x="26" y="100" font-family="Arial" font-size="40" font-weight="900" fill="#101010">$18K</text></g>
  <rect x="350" y="430" width="740" height="260" rx="30" fill="#f8f8f5" stroke="#d1d5db"/>
  <path d="M390 640 L470 600 L550 614 L630 545 L710 570 L790 500 L870 526 L950 470 L1050 490" fill="none" stroke="url(#line)" stroke-width="12" stroke-linecap="round" stroke-linejoin="round"/>
  <rect x="350" y="724" width="740" height="60" rx="18" fill="#f8f8f5" stroke="#d1d5db"/><text x="382" y="763" font-family="Arial" font-size="24" font-weight="800" fill="#101010">Next best action: launch a limited brunch drop</text>
</svg>
